# xmcd
#
# Track frame offsets:
# 150
# 19192
# 43003
# 65942
# 93377
# 101381
# 114311
# 127042
# 145053
# 165234
# 182860
#
# Disc length: 2808 seconds
#
#
# Revision: 2
# Processed by: cddbd v1.5.1PL0 Copyright (c) Steve Scherf et al.
# Submitted via: FreeRIP 2.40 
#
DISCID=930af60b
DTITLE=Matthew Lien - The Arctic Refuge
DYEAR=2003
DGENRE=New Age
TTITLE0=Heart of the Refuge
TTITLE1=Among the Rafters Of the Earth
TTITLE2=Currents
TTITLE3=Under Mountain and Valley
TTITLE4=Moon Over Crow Mountain - Intro(legend of the man without fire)
TTITLE5=Moon Over Crow Mountain
TTITLE6=A Perilous Trek
TTITLE7=The Journey Home
TTITLE8=Renewal
TTITLE9=One River To The Sea
TTITLE10=Whales
EXTD=YEAR: 2003
EXTT0=
EXTT1=
EXTT2=
EXTT3=
EXTT4=
EXTT5=
EXTT6=
EXTT7=
EXTT8=
EXTT9=
EXTT10=
PLAYORDER=
